<svg width="30" height="22" viewBox="0 0 30 22" fill="none" xmlns="http://www.w3.org/2000/svg">
<path d="M25.7331 3.36843C22.2408 0.755431 18.8952 0.828631 18.8952 0.828631L18.5532 1.21923C22.7049 2.46483 24.6342 4.29633 24.6342 4.29633C18.6945 1.02603 11.1285 1.04943 4.9503 4.29633C4.9503 4.29633 6.9528 2.36703 11.3487 1.12143L11.1045 0.828331C11.1045 0.828331 7.7832 0.755131 4.2666 3.36813C4.2666 3.36813 0.75 9.69333 0.75 17.4837C0.75 17.4837 2.8014 21.0003 8.1987 21.1713C8.1987 21.1713 9.1023 20.0967 9.8349 19.1688C6.7332 18.2409 5.5611 16.3116 5.5611 16.3116C7.5096 17.5308 9.48 18.294 11.9352 18.7782C15.93 19.6005 20.8989 18.7551 24.6099 16.3116C24.6099 16.3116 23.3889 18.2898 20.1897 19.1934C20.9223 20.097 21.8016 21.147 21.8016 21.147C27.1983 20.9763 29.2497 17.4597 29.2497 17.484C29.2497 9.69363 25.7331 3.36843 25.7331 3.36843ZM10.4451 15.213C9.0774 15.213 7.9542 14.0163 7.9542 12.5265C8.0541 8.95893 12.8613 8.97003 12.9363 12.5265C12.936 14.0163 11.8371 15.213 10.4451 15.213ZM19.359 15.213C17.9913 15.213 16.8681 14.0163 16.8681 12.5265C16.9779 8.96583 21.7251 8.96433 21.8502 12.5265C21.8499 14.0163 20.751 15.213 19.359 15.213Z" fill="white"/>
</svg>
