<svg className="half-moon"  width="20" height="21" viewBox="0 0 20 21" fill="none" xmlns="http://www.w3.org/2000/svg">
<path d="M19.8377 14.374C19.6726 14.0954 19.2083 13.662 18.0525 13.8684C17.4127 13.9819 16.7626 14.0335 16.1125 14.0026C13.7081 13.8994 11.5307 12.7952 10.0138 11.0925C8.67232 9.59624 7.84678 7.64591 7.83647 5.54079C7.83647 4.3644 8.06349 3.22928 8.52785 2.15608C8.9819 1.11384 8.662 0.566922 8.43498 0.339899C8.19764 0.102557 7.6404 -0.227658 6.54656 0.226387C2.326 2.00129 -0.284765 6.23218 0.0248117 10.7623C0.334388 15.0242 3.32696 18.6668 7.28955 20.0393C8.23892 20.3695 9.23988 20.5656 10.2718 20.6069C10.4369 20.6172 10.602 20.6275 10.7671 20.6275C14.2241 20.6275 17.4643 18.9971 19.5075 16.2212C20.1989 15.2615 20.0132 14.6527 19.8377 14.374Z" fill="white"/>
</svg>
