<svg className="plus"  width="41" height="41" viewBox="0 0 41 41" fill="none" xmlns="http://www.w3.org/2000/svg">
<path d="M29.0545 0.0834961H11.9453C4.51367 0.0834961 0.083252 4.51391 0.083252 11.9456V29.0343C0.083252 36.4864 4.51367 40.9168 11.9453 40.9168H29.0341C36.4658 40.9168 40.8962 36.4864 40.8962 29.0547V11.9456C40.9166 4.51391 36.4862 0.0834961 29.0545 0.0834961ZM28.6666 22.0314H22.0312V28.6668C22.0312 29.5039 21.337 30.1981 20.4999 30.1981C19.6628 30.1981 18.9687 29.5039 18.9687 28.6668V22.0314H12.3333C11.4962 22.0314 10.802 21.3372 10.802 20.5002C10.802 19.6631 11.4962 18.9689 12.3333 18.9689H18.9687V12.3335C18.9687 11.4964 19.6628 10.8022 20.4999 10.8022C21.337 10.8022 22.0312 11.4964 22.0312 12.3335V18.9689H28.6666C29.5037 18.9689 30.1978 19.6631 30.1978 20.5002C30.1978 21.3372 29.5037 22.0314 28.6666 22.0314Z" fill="white"/>
</svg>
