<svg   width="188" height="381" viewBox="0 0 188 381" fill="none" xmlns="http://www.w3.org/2000/svg">
<path d="M125.747 299.519C121.272 296.96 102.432 286.065 96.0267 282.359C94.755 281.637 93.9543 281.166 93.8915 281.119C90.7066 279.344 86.9852 278.786 83.4197 279.549C80.3591 280.17 77.4278 281.312 74.7533 282.925C74.3137 283.176 73.8741 283.474 73.4502 283.757C66.2125 288.325 59.9953 295.516 54.8143 305.407C49.5387 315.041 46.7085 325.823 46.5718 336.807C46.5718 347.211 49.3454 354.511 54.8928 358.708C55.4544 359.127 56.0417 359.509 56.6512 359.854C61.8479 362.806 87.9099 377.91 88.4908 378.239H88.6321C87.9908 377.888 87.3768 377.489 86.7952 377.046C81.2374 372.859 78.4637 365.564 78.4742 355.16C78.6108 344.177 81.4411 333.395 86.7167 323.76C92.1907 313.294 98.8318 305.794 106.64 301.262C114.071 296.971 120.487 296.411 125.888 299.582L125.747 299.519Z" fill="#8F00FF"/>
<path opacity="0.4" d="M125.889 299.614C120.488 296.474 114.072 297.028 106.64 301.278C99.387 305.465 93.1332 312.268 87.879 321.688L55.9766 303.209C60.9064 294.401 66.731 287.917 73.4349 283.694C73.8588 283.427 74.2984 283.113 74.738 282.862C77.4098 281.247 80.3425 280.11 83.4044 279.502C86.9697 278.73 90.6943 279.288 93.8763 281.072L96.0115 282.312C102.417 286.002 121.257 296.898 125.732 299.457L125.889 299.614Z" fill="black"/>
<path opacity="0.3" d="M88.6321 378.192H88.4908C87.9099 377.862 61.8008 362.759 56.6512 359.807C56.0417 359.462 55.4544 359.08 54.8928 358.661C49.3454 354.475 46.5718 347.179 46.5718 336.776C46.7046 325.792 49.5351 315.009 54.8143 305.376C55.1911 304.638 55.5836 303.915 55.9918 303.225L87.8785 321.641C87.486 322.332 87.0935 323.054 86.7167 323.776C81.4411 333.41 78.6108 344.192 78.4742 355.176C78.4742 365.58 81.2478 372.875 86.7952 377.062C87.3789 377.483 87.9928 377.861 88.6321 378.192Z" fill="black"/>
<path d="M111.837 30.1076C127.317 21.1587 140.495 17.354 151.369 18.6938C155.795 19.2225 160.068 20.6432 163.929 22.8699C163.821 22.813 163.717 22.7501 163.615 22.6816C159.879 20.5778 137.365 7.59386 132.215 4.56377C128.287 2.26787 123.924 0.813639 119.404 0.293366C108.519 -1.0359 95.3362 2.7635 79.856 11.6916C55.7827 25.5808 36.4194 45.9908 21.766 72.9215C7.11271 99.8522 -0.13546 127.343 0.0215394 155.394L31.9082 173.81C31.6884 145.738 38.9366 118.242 53.6527 91.3219C68.3688 64.4017 87.7635 43.9969 111.837 30.1076Z" fill="#8F00FF"/>
<path opacity="0.2" d="M163.678 22.6972C159.874 20.5779 155.693 19.2182 151.37 18.6937C140.505 17.354 127.328 21.1586 111.837 30.1076C87.7638 43.9864 68.4005 64.3964 53.7472 91.3376C53.1349 92.4523 52.5383 93.5827 51.9574 94.6974L19.9922 76.2499C20.5731 75.1352 21.1697 74.0048 21.782 72.8901C36.4981 45.9803 55.8614 25.5703 79.8719 11.6601C95.3731 2.72161 108.556 -1.07779 119.42 0.261944C123.941 0.787497 128.304 2.24706 132.231 4.54804C137.428 7.60954 159.942 20.6091 163.678 22.6972Z" fill="black"/>
<path opacity="0.3" d="M51.8784 94.666C38.366 120.508 31.7144 146.879 31.9237 173.778L0.0370446 155.362C-0.161822 128.452 6.48975 102.082 19.9917 76.2499L51.8784 94.666Z" fill="black"/>
<path d="M133.503 82.2944C127.715 79.2172 119.985 80.4208 110.314 85.9053C109.987 91.6594 108.802 97.3323 106.797 102.736C104.379 109.246 97.3457 122.675 85.6963 143.022C73.6283 164.06 64.8991 184.151 59.5088 203.294C54.1624 222.195 51.447 241.742 51.439 261.384L51.596 271.165L73.3562 283.725L83.4983 289.581L83.3256 279.785V279.659C83.3602 260.081 86.0754 240.599 91.3954 221.757C96.7858 202.614 105.52 182.528 117.599 161.501C129.238 141.154 136.266 127.72 138.684 121.199C141.098 114.752 142.332 107.924 142.326 101.04C142.326 91.6725 139.385 85.4239 133.503 82.2944Z" fill="#8F00FF"/>
<path opacity="0.3" d="M135.56 128.248C131.959 135.742 125.972 146.806 117.599 161.438C105.51 182.476 96.7753 202.567 91.3954 221.71C86.0697 240.567 83.3545 260.065 83.3256 279.659V279.91L83.4983 289.707L73.3562 283.867L51.596 271.307L51.439 261.51C51.4482 241.868 54.1636 222.321 59.5088 203.42C64.8991 184.276 73.6283 164.186 85.6963 143.148C94.0697 128.494 100.067 117.436 103.689 109.974L135.56 128.248Z" fill="black"/>
<path opacity="0.4" d="M142.327 101.04C142.33 107.902 141.102 114.708 138.7 121.136C138.025 122.973 136.973 125.344 135.56 128.248L103.689 109.848C105.081 106.938 106.128 104.567 106.829 102.736C108.834 97.3323 110.019 91.6594 110.346 85.9053C120.017 80.4208 127.747 79.2172 133.535 82.2944C139.323 85.3716 142.253 91.6202 142.327 101.04Z" fill="black"/>
<path d="M75.0831 148.847L31.9238 173.778C31.704 145.707 38.9522 118.211 53.6683 91.2904C68.3844 64.3702 87.7477 43.9602 111.758 30.0605C127.238 21.1115 140.416 17.3069 151.291 18.6466C162.166 19.9863 170.869 25.9471 177.4 36.5289C183.942 47.1107 187.212 60.3091 187.212 76.1243C187.148 85.3061 186.095 94.4543 184.072 103.411C181.626 114.125 178.324 124.625 174.197 134.811C171.559 141.468 165.243 153.755 155.247 171.674C145.691 188.756 139.704 200.379 137.286 206.544C134.603 213.862 132.611 221.415 131.336 229.105C129.435 240.598 128.386 252.217 128.196 263.865L83.5611 289.644L83.3884 279.847C83.3976 260.205 86.113 240.658 91.4582 221.757C96.8485 202.614 105.583 182.528 117.661 161.501C129.3 141.154 136.329 127.72 138.747 121.199C141.14 114.749 142.352 107.92 142.326 101.04C142.326 91.6201 139.39 85.3715 133.518 82.2943C127.647 79.2172 119.765 80.5045 109.874 86.1565C99.7634 91.9969 91.4686 100.758 84.9898 112.438C78.6536 123.538 75.2445 136.067 75.0831 148.847Z" fill="#8F00FF"/>
<path d="M106.562 301.372C114.569 296.735 121.404 296.447 127.066 300.509C132.728 304.57 135.56 311.797 135.56 322.19C135.388 333.234 132.504 344.065 127.16 353.731C121.571 364.355 114.815 371.954 106.892 376.528C98.9683 381.102 92.2382 381.29 86.7014 377.093C81.154 372.906 78.3804 365.606 78.3804 355.192C78.5171 344.208 81.3473 333.426 86.6229 323.792C92.1179 313.346 98.7642 305.873 106.562 301.372Z" fill="#8F00FF"/>
</svg>
