<svg width="35" height="1004" viewBox="0 0 35 1004" fill="none" xmlns="http://www.w3.org/2000/svg">
<path d="M19.5 993.999L19.4961 986.422L14.4961 986.424L14.5 994.001L19.5 993.999ZM19.4883 971.267L19.4805 956.113L14.4805 956.115L14.4883 971.27L19.4883 971.267ZM19.4727 940.959L19.4648 925.804L14.4648 925.807L14.4727 940.961L19.4727 940.959ZM19.457 910.65L19.4492 895.496L14.4492 895.498L14.457 910.653L19.457 910.65ZM19.4414 880.341L19.4336 865.187L14.4336 865.19L14.4414 880.344L19.4414 880.341ZM19.4258 850.033L19.418 834.878L14.418 834.881L14.4258 850.035L19.4258 850.033ZM19.4102 819.724L19.4023 804.57L14.4023 804.572L14.4102 819.727L19.4102 819.724ZM19.3945 789.415L19.3867 774.261L14.3867 774.264L14.3945 789.418L19.3945 789.415ZM19.3789 759.107L19.3711 743.952L14.3711 743.955L14.3789 759.109L19.3789 759.107ZM19.3633 728.798L19.3555 713.644L14.3555 713.646L14.3633 728.801L19.3633 728.798ZM19.3477 698.489L19.3398 683.335L14.3398 683.338L14.3477 698.492L19.3477 698.489ZM19.332 668.181L19.3242 653.026L14.3242 653.029L14.332 668.183L19.332 668.181ZM19.3164 637.872L19.3086 622.718L14.3086 622.72L14.3164 637.875L19.3164 637.872ZM19.3008 607.563L19.293 592.409L14.293 592.412L14.3008 607.566L19.3008 607.563ZM19.2852 577.255L19.2773 562.1L14.2773 562.103L14.2852 577.257L19.2852 577.255ZM19.2695 546.946L19.2617 531.792L14.2617 531.794L14.2695 546.949L19.2695 546.946ZM19.2539 516.637L19.2461 501.483L14.2461 501.486L14.2539 516.64L19.2539 516.637ZM19.2383 486.329L19.2305 471.174L14.2305 471.177L14.2383 486.331L19.2383 486.329ZM19.2227 456.02L19.2148 440.866L14.2148 440.868L14.2227 456.023L19.2227 456.02ZM19.207 425.712L19.1992 410.557L14.1992 410.56L14.207 425.714L19.207 425.712ZM19.1914 395.403L19.1836 380.249L14.1836 380.251L14.1914 395.406L19.1914 395.403ZM19.1758 365.094L19.168 349.94L14.168 349.943L14.1758 365.097L19.1758 365.094ZM19.1602 334.786L19.1523 319.632L14.1523 319.634L14.1602 334.788L19.1602 334.786ZM19.1445 304.477L19.1367 289.323L14.1367 289.326L14.1445 304.48L19.1445 304.477ZM19.1289 274.169L19.1211 259.014L14.1211 259.017L14.1289 274.171L19.1289 274.169ZM19.1133 243.86L19.1055 228.706L14.1055 228.708L14.1133 243.863L19.1133 243.86ZM19.0977 213.551L19.0898 198.397L14.0898 198.4L14.0977 213.554L19.0977 213.551ZM19.082 183.243L19.0742 168.089L14.0742 168.091L14.082 183.245L19.082 183.243ZM19.0664 152.934L19.0586 137.78L14.0586 137.783L14.0664 152.937L19.0664 152.934ZM19.0508 122.626L19.043 107.471L14.043 107.474L14.0508 122.628L19.0508 122.626ZM19.0352 92.3172L19.0273 77.1628L14.0273 77.1654L14.0352 92.3198L19.0352 92.3172ZM19.0195 62.0085L19.0117 46.8542L14.0117 46.8568L14.0195 62.0111L19.0195 62.0085ZM19.0039 31.6999L19 24.1221L14 24.1247L14.0039 31.7025L19.0039 31.6999Z" fill="#6D00C2"/>
<circle cx="17.5" cy="17.5" r="17.5" fill="#6D00C2"/>
<circle cx="17.5" cy="340.5" r="17.5" fill="#6D00C2"/>
<circle cx="17.5" cy="663.5" r="17.5" fill="#6D00C2"/>
<circle cx="17.5" cy="986.5" r="17.5" fill="#6D00C2"/>
</svg>
