<svg width="24" height="20" viewBox="0 0 24 20" fill="none" xmlns="http://www.w3.org/2000/svg">
<path d="M17.1425 6.61361C17.8325 5.92361 18.5175 4.31361 15.6425 6.26861C11.5575 9.08736 7.53127 11.7336 7.53127 11.7336C7.11682 11.921 6.66876 12.0227 6.21402 12.0326C5.75927 12.0425 5.30722 11.9603 4.88502 11.7911C3.16002 11.2736 1.14627 10.5836 1.14627 10.5836C1.14627 10.5836 -0.228731 9.71986 2.12502 8.79986C2.12502 8.79986 12.0763 4.71611 15.5275 3.27736C16.85 2.70236 21.3363 0.862357 21.3363 0.862357C21.3363 0.862357 23.4075 0.0561066 23.235 2.01236C23.1775 2.81736 22.7175 5.63736 22.2575 8.68486C21.5663 12.9986 20.8188 17.7161 20.8188 17.7161C20.8188 17.7161 20.7038 19.0386 19.7263 19.2686C18.6799 19.2509 17.6688 18.8869 16.8513 18.2336C16.6213 18.0611 12.5375 15.4724 11.0413 14.2074C10.8891 14.1043 10.7654 13.9643 10.6818 13.8006C10.5982 13.6369 10.5574 13.4546 10.5631 13.2709C10.5689 13.0872 10.621 12.9078 10.7146 12.7496C10.8083 12.5915 10.9404 12.4595 11.0988 12.3661C13.1738 10.4686 15.6475 8.10986 17.1425 6.61361Z" fill="white"/>
</svg>
