<svg width="35" height="1327" viewBox="0 0 35 1327" fill="none" xmlns="http://www.w3.org/2000/svg">
<path d="M19 1305V1297.55H14V1305H19ZM19 1282.66V1267.77H14V1282.66H19ZM19 1252.87V1237.98H14V1252.87H19ZM19 1223.08V1208.19H14V1223.08H19ZM19 1193.3V1178.4H14V1193.3H19ZM19 1163.51V1148.61H14V1163.51H19ZM19 1133.72V1118.83H14V1133.72H19ZM19 1103.93V1089.04H14V1103.93H19ZM19 1074.14V1059.25H14V1074.14H19ZM19 1044.36V1029.46H14V1044.36H19ZM19 1014.57V999.675H14V1014.57H19ZM19 984.781V969.887H14V984.781H19ZM19 954.993V940.099H14V954.993H19ZM19 925.205V910.311H14V925.205H19ZM19 895.417V880.524H14L14 895.417H19ZM19 865.63V850.736H14L14 865.63H19ZM19 835.842V820.948H14L14 835.842H19ZM19 806.054V791.16H14L14 806.054H19ZM19 776.266V761.372H14L14 776.266H19ZM19 746.478V731.584H14L14 746.478H19ZM19 716.69V701.797H14L14 716.69H19ZM19 686.903V672.009H14L14 686.903H19ZM19 657.115V642.221H14L14 657.115H19ZM19 627.327V612.433H14L14 627.327H19ZM19 597.539V582.645H14L14 597.539H19ZM19 567.751V552.857H14L14 567.751H19ZM19 537.963V523.069H14L14 537.963H19ZM19 508.176V493.282H14L14 508.176H19ZM19 478.388V463.494H14L14 478.388H19ZM19 448.6V433.706H14L14 448.6H19ZM19 418.812V403.918H14L14 418.812H19ZM19 389.024V374.13H14L14 389.024H19ZM19 359.236V344.342H14L14 359.236H19ZM19 329.448V314.555H14L14 329.448H19ZM19 299.661V284.767H14L14 299.661H19ZM19 269.873V254.979H14L14 269.873H19ZM19 240.085V225.191H14L14 240.085H19ZM19 210.297V195.403H14L14 210.297H19ZM19 180.509V165.615H14L14 180.509H19ZM19 150.721V135.828H14L14 150.721H19ZM19 120.934V106.04H14L14 120.934H19ZM19 91.1458V76.2518H14L14 91.1458H19ZM19 61.3579V46.464H14L14 61.3579H19ZM19 31.5701V24.1237H14V31.5701H19Z" fill="#6D00C2"/>
<circle cx="17.5" cy="17.5" r="17.5" fill="#6D00C2"/>
<circle cx="17.5" cy="340.5" r="17.5" fill="#6D00C2"/>
<circle cx="17.5" cy="663.5" r="17.5" fill="#6D00C2"/>
<circle cx="17.5" cy="986.5" r="17.5" fill="#6D00C2"/>
<circle cx="17.5" cy="1309.5" r="17.5" fill="#6D00C2"/>
</svg>
