<svg className="twitter-icon" width="26" height="22" viewBox="0 0 26 22" fill="none" xmlns="http://www.w3.org/2000/svg">
<path d="M25.5 3.24977C24.5604 3.65739 23.5668 3.92685 22.55 4.04977C23.6227 3.40892 24.4266 2.40075 24.8125 1.21227C23.8044 1.81235 22.701 2.23514 21.55 2.46227C20.7807 1.62799 19.7562 1.07264 18.6373 0.883338C17.5183 0.694032 16.3682 0.881472 15.3672 1.41626C14.3663 1.95105 13.5712 2.80294 13.1066 3.83832C12.6419 4.8737 12.5341 6.03401 12.8 7.13727C10.7618 7.03418 8.76805 6.50347 6.94832 5.5796C5.12859 4.65574 3.52356 3.35939 2.2375 1.77477C1.78642 2.56248 1.5494 3.45455 1.55 4.36227C1.5484 5.20525 1.75527 6.03554 2.15219 6.77923C2.54912 7.52291 3.12377 8.15691 3.825 8.62477C3.00997 8.6026 2.21236 8.3839 1.5 7.98727V8.04977C1.50611 9.23089 1.91999 10.3736 2.67164 11.2847C3.42329 12.1958 4.46657 12.8193 5.625 13.0498C5.17907 13.1855 4.71609 13.257 4.25 13.2623C3.92736 13.2585 3.60553 13.2292 3.2875 13.1748C3.61739 14.1908 4.25578 15.0787 5.11384 15.715C5.97191 16.3512 7.00697 16.7042 8.075 16.7248C6.2715 18.1439 4.04485 18.9183 1.75 18.9248C1.33217 18.9261 0.91467 18.9011 0.5 18.8498C2.84304 20.3626 5.57352 21.1657 8.3625 21.1623C10.2871 21.1823 12.1964 20.8185 13.9789 20.0924C15.7614 19.3662 17.3813 18.2921 18.744 16.9329C20.1067 15.5737 21.185 13.9565 21.9157 12.1759C22.6464 10.3953 23.015 8.48693 23 6.56227C23 6.34977 23 6.12477 23 5.89977C23.9809 5.16829 24.8268 4.27155 25.5 3.24977Z" fill="white"/>
</svg>
